<svg xmlns="http://www.w3.org/2000/svg" width="75" height="25" viewBox="0 0 75 25" fill="none">
        <path d="M52.0273 7.46191C53.4638 7.46191 54.6046 8.09774 55.1973 8.80176H55.2891V7.82422H57.7979V18.5879C57.7978 23.0147 55.175 24.8319 52.0732 24.832C49.1544 24.832 47.3984 22.879 46.7363 21.29L49.0391 20.3359C49.4499 21.3119 50.454 22.4697 52.0732 22.4697C54.0568 22.4696 55.2889 21.2448 55.2891 18.9512V18.0879H55.1973C54.6046 18.8149 53.4638 19.4502 52.0273 19.4502C49.017 19.45 46.2578 16.8395 46.2578 13.4785C46.2578 10.0956 49.017 7.46212 52.0273 7.46191ZM25.5879 7.46289C28.8576 7.46289 31.5225 9.98294 31.5225 13.457C31.5222 16.9079 28.8574 19.4512 25.5879 19.4512C22.3194 19.4512 19.6545 16.9079 19.6543 13.457C19.6543 9.98295 22.3192 7.46291 25.5879 7.46289ZM38.8906 7.46289C42.1603 7.46289 44.8252 9.98294 44.8252 13.457C44.825 16.9079 42.1601 19.4512 38.8906 19.4512C35.6211 19.4512 32.9573 16.9079 32.957 13.457C32.957 9.98295 35.621 7.46291 38.8906 7.46289ZM69.5723 7.46191C72.6961 7.46191 74.2252 9.93629 74.7266 11.2764L75 11.958L66.9492 15.2725C67.566 16.4755 68.5231 17.0889 69.8691 17.0889C71.214 17.0888 72.149 16.4306 72.833 15.4316L74.8867 16.7939C74.2257 17.771 72.6283 19.4511 69.8691 19.4512C66.4489 19.4512 63.9778 16.8169 63.9775 13.457C63.9775 9.89208 66.4705 7.46211 69.5723 7.46191ZM9.4873 0.832031C12.3391 0.832031 14.3686 1.94442 15.8975 3.39746L14.0957 5.19141C13.0008 4.16938 11.5174 3.375 9.4873 3.375C5.72455 3.37514 2.78223 6.3956 2.78223 10.1416C2.7824 13.8875 5.72466 16.9071 9.4873 16.9072C11.9283 16.9072 13.319 15.9309 14.209 15.0449C14.938 14.319 15.4178 13.2743 15.5996 11.8447H9.4873V9.30078H18.0859C18.1773 9.75479 18.2236 10.3006 18.2236 10.8906C18.2236 12.7986 17.6982 15.1599 16.0107 16.8398C14.3684 18.5427 12.2696 19.4502 9.4873 19.4502C4.33341 19.4501 0.000188594 15.2735 0 10.1416C0 5.01056 4.33329 0.832175 9.4873 0.832031ZM62.4326 19.0869H59.7871V1.46777H62.4326V19.0869ZM25.5879 9.82324C23.7969 9.82326 22.252 11.3 22.252 13.457C22.2522 15.5908 23.797 17.0898 25.5879 17.0898C27.3798 17.0898 28.9246 15.5908 28.9248 13.457C28.9248 11.3 27.3799 9.82324 25.5879 9.82324ZM38.8906 9.82324C37.0996 9.82326 35.5537 11.3 35.5537 13.457C35.5539 15.5908 37.0997 17.0898 38.8906 17.0898C40.6825 17.0898 42.2273 15.5908 42.2275 13.457C42.2275 11.3 40.6827 9.82324 38.8906 9.82324ZM52.2559 9.82227C50.4317 9.82227 48.9024 11.3675 48.9023 13.4785C48.9023 15.5676 50.4317 17.0889 52.2559 17.0889C54.0569 17.0888 55.4707 15.5675 55.4707 13.4785C55.4707 11.3675 54.0569 9.82234 52.2559 9.82227ZM69.6641 9.77734C68.3181 9.77734 66.4484 10.9585 66.5156 13.2744L71.8994 11.0498C71.6021 10.3008 70.7128 9.77735 69.6641 9.77734Z" fill="#9AA0A6"></path>
      </svg>