<svg xmlns="http://www.w3.org/2000/svg" width="18.0" height="18.0" viewBox="0.0 0.0 18.0 18.0" fill="none">
<g clip-path="url(#clip0_4005_518)">
<path d="M8.97917 3.04167C10.5764 3.04167 12.0486 3.38889 13.3958 4.08333C14.7431 4.76389 15.7431 5.68056 16.3958 6.83333C16.4653 6.93056 16.4792 7.04861 16.4375 7.1875C16.3958 7.32639 16.3194 7.42361 16.2083 7.47917C16.0694 7.53472 15.9444 7.54167 15.8333 7.5C15.7222 7.45833 15.6389 7.38194 15.5833 7.27083C14.9861 6.27083 14.0903 5.47917 12.8958 4.89583C11.7153 4.29861 10.4097 4 8.97917 4C7.5625 4 6.25694 4.29861 5.0625 4.89583C3.88194 5.47917 3 6.27083 2.41667 7.27083C2.34722 7.39583 2.25 7.47222 2.125 7.5C2.01389 7.52778 1.89583 7.51389 1.77083 7.45833C1.67361 7.38889 1.60417 7.29167 1.5625 7.16667C1.52083 7.04167 1.52778 6.93056 1.58333 6.83333C2.26389 5.69444 3.27083 4.77778 4.60417 4.08333C5.9375 3.38889 7.39583 3.04167 8.97917 3.04167ZM8.97917 5.0625C10.7431 5.0625 12.2431 5.69444 13.4792 6.95833C14.7153 8.20833 15.3333 9.72222 15.3333 11.5C15.3333 12.1944 15.0972 12.7847 14.625 13.2708C14.1667 13.7569 13.5972 14 12.9167 14C12.2361 14 11.6597 13.7569 11.1875 13.2708C10.7153 12.7847 10.4792 12.1944 10.4792 11.5C10.4792 11.0833 10.3333 10.7292 10.0417 10.4375C9.76389 10.1458 9.42361 10 9.02083 10C8.61806 10 8.26389 10.1458 7.95833 10.4375C7.66667 10.7292 7.52083 11.0833 7.52083 11.5C7.52083 13.0139 7.93056 14.1597 8.75 14.9375C9.56944 15.7153 10.4861 16.1042 11.5 16.1042C11.625 16.1042 11.7361 16.1528 11.8333 16.25C11.9444 16.3333 12 16.4375 12 16.5625C12 16.7014 11.9514 16.8194 11.8542 16.9167C11.7569 17.0139 11.6389 17.0556 11.5 17.0417C10.2639 17.0556 9.13195 16.5903 8.10417 15.6458C7.09028 14.6875 6.58333 13.3056 6.58333 11.5C6.58333 10.8194 6.8125 10.2431 7.27083 9.77083C7.74306 9.28472 8.31944 9.04167 9 9.04167C9.68056 9.04167 10.2569 9.28472 10.7292 9.77083C11.2014 10.2431 11.4375 10.8194 11.4375 11.5C11.4375 11.9306 11.5764 12.2986 11.8542 12.6042C12.1458 12.8958 12.4931 13.0417 12.8958 13.0417C13.2986 13.0417 13.6458 12.8958 13.9375 12.6042C14.2431 12.2986 14.3958 11.9306 14.3958 11.5C14.3958 10 13.8681 8.71528 12.8125 7.64583C11.7569 6.5625 10.4792 6.02083 8.97917 6.02083C7.47917 6.02083 6.20139 6.55555 5.14583 7.625C4.10417 8.69444 3.58333 9.99306 3.58333 11.5208C3.58333 11.9931 3.625 12.4236 3.70833 12.8125C3.80556 13.2014 3.91667 13.5417 4.04167 13.8333C4.11111 13.9583 4.125 14.0833 4.08333 14.2083C4.04167 14.3194 3.96528 14.4097 3.85417 14.4792C3.72917 14.5347 3.60417 14.5417 3.47917 14.5C3.35417 14.4444 3.26389 14.3542 3.20833 14.2292C3.01389 13.7847 2.86806 13.3403 2.77083 12.8958C2.6875 12.4375 2.64583 11.9722 2.64583 11.5C2.64583 9.72222 3.25694 8.20833 4.47917 6.95833C5.71528 5.69444 7.21528 5.0625 8.97917 5.0625ZM9 1.0625C9.95833 1.0625 10.8819 1.18055 11.7708 1.41667C12.6597 1.65278 13.4792 2 14.2292 2.45833C14.3403 2.51389 14.4097 2.61111 14.4375 2.75C14.4653 2.875 14.4444 2.99306 14.375 3.10417C14.3056 3.21528 14.2014 3.28472 14.0625 3.3125C13.9375 3.34028 13.8194 3.32639 13.7083 3.27083C13.0556 2.84028 12.3194 2.52778 11.5 2.33333C10.6806 2.13889 9.84722 2.04167 9 2.04167C8.13889 2.04167 7.29861 2.15278 6.47917 2.375C5.65972 2.58333 4.90972 2.88194 4.22917 3.27083C4.11806 3.32639 4 3.34028 3.875 3.3125C3.75 3.28472 3.65972 3.21528 3.60417 3.10417C3.53472 2.99306 3.51389 2.875 3.54167 2.75C3.56944 2.61111 3.63889 2.51389 3.75 2.45833C4.5 1.98611 5.31944 1.63889 6.20833 1.41667C7.09722 1.18055 8.02778 1.0625 9 1.0625ZM9 7.0625C10.0417 7.0625 10.9514 7.42361 11.7292 8.14583C12.5208 8.85417 13.0347 9.77083 13.2708 10.8958C13.2986 11.0347 13.2778 11.1597 13.2083 11.2708C13.1389 11.3819 13.0347 11.4514 12.8958 11.4792C12.7708 11.5069 12.6528 11.4861 12.5417 11.4167C12.4306 11.3472 12.3611 11.2431 12.3333 11.1042C12.1389 10.2014 11.7361 9.45833 11.125 8.875C10.5139 8.29167 9.80556 8 9 8C8.05556 8 7.24306 8.39583 6.5625 9.1875C5.89583 9.96528 5.5625 10.9028 5.5625 12C5.5625 12.7222 5.70833 13.4514 6 14.1875C6.30556 14.9236 6.73611 15.5069 7.29167 15.9375C7.40278 16.0208 7.46528 16.1319 7.47917 16.2708C7.49306 16.3958 7.47222 16.5139 7.41667 16.625C7.33333 16.7361 7.22222 16.7986 7.08333 16.8125C6.94444 16.8125 6.81944 16.7778 6.70833 16.7083C6.04167 16.1806 5.52083 15.4792 5.14583 14.6042C4.78472 13.7292 4.60417 12.8611 4.60417 12C4.60417 10.6389 5.02778 9.47917 5.875 8.52083C6.73611 7.54861 7.77778 7.0625 9 7.0625ZM9 11.0417C9.125 11.0417 9.23611 11.0903 9.33333 11.1875C9.43056 11.2708 9.47917 11.375 9.47917 11.5C9.47917 12.5833 9.83333 13.3958 10.5417 13.9375C11.2639 14.4792 12.0833 14.75 13 14.75C13.2083 14.75 13.3819 14.7361 13.5208 14.7083C13.6597 14.6806 13.7986 14.6528 13.9375 14.625C14.0486 14.6111 14.1528 14.6389 14.25 14.7083C14.3611 14.7778 14.4306 14.875 14.4583 15C14.4722 15.125 14.4444 15.2431 14.375 15.3542C14.3194 15.4653 14.2222 15.5347 14.0833 15.5625C13.9722 15.5764 13.8333 15.6042 13.6667 15.6458C13.5 15.6875 13.2778 15.7083 13 15.7083C11.6667 15.7083 10.5833 15.3125 9.75 14.5208C8.93056 13.7153 8.52083 12.7083 8.52083 11.5C8.52083 11.375 8.5625 11.2708 8.64583 11.1875C8.74306 11.0903 8.86111 11.0417 9 11.0417Z" fill="#4285F4" />
</g>
<defs>
<clipPath id="clip0_4005_518">
<rect width="18" height="18" fill="white" />
</clipPath>
</defs>
</svg>