<svg xmlns="http://www.w3.org/2000/svg" width="18.0" height="18.0" viewBox="0.0 0.0 18.0 18.0" fill="none">
<g clip-path="url(#clip0_4005_514)">
<path d="M5.5 14.1458C4.06944 14.1458 2.85417 13.6458 1.85417 12.6458C0.854167 11.6458 0.354167 10.4306 0.354167 9C0.354167 7.56944 0.854167 6.35417 1.85417 5.35417C2.85417 4.35417 4.06944 3.85417 5.5 3.85417C6.04167 3.85417 6.55556 3.93055 7.04167 4.08333C7.54167 4.22222 8.00694 4.4375 8.4375 4.72917C7.84028 5.29861 7.38194 5.95139 7.0625 6.6875C6.75694 7.40972 6.60417 8.18056 6.60417 9C6.60417 9.81944 6.75694 10.5972 7.0625 11.3333C7.38194 12.0556 7.84028 12.7014 8.4375 13.2708C8.00694 13.5625 7.54167 13.7847 7.04167 13.9375C6.55556 14.0764 6.04167 14.1458 5.5 14.1458ZM12.5 14.1458C11.9583 14.1458 11.4375 14.0764 10.9375 13.9375C10.4514 13.7847 10 13.5625 9.58333 13.2708C9.72222 13.1181 9.85417 12.9653 9.97917 12.8125C10.1181 12.6597 10.2431 12.4931 10.3542 12.3125C10.6597 12.5069 10.9931 12.6597 11.3542 12.7708C11.7292 12.8819 12.1111 12.9375 12.5 12.9375C13.5972 12.9375 14.5278 12.5556 15.2917 11.7917C16.0556 11.0278 16.4375 10.0972 16.4375 9C16.4375 7.90278 16.0556 6.97222 15.2917 6.20833C14.5278 5.44444 13.5972 5.0625 12.5 5.0625C12.1111 5.0625 11.7292 5.11805 11.3542 5.22917C10.9931 5.32639 10.6597 5.47222 10.3542 5.66667C10.2431 5.48611 10.1181 5.32639 9.97917 5.1875C9.85417 5.03472 9.72222 4.88194 9.58333 4.72917C10 4.4375 10.4514 4.22222 10.9375 4.08333C11.4375 3.93055 11.9583 3.85417 12.5 3.85417C13.9306 3.85417 15.1458 4.35417 16.1458 5.35417C17.1458 6.35417 17.6458 7.56944 17.6458 9C17.6458 10.4306 17.1458 11.6458 16.1458 12.6458C15.1458 13.6458 13.9306 14.1458 12.5 14.1458ZM9 12.7917C8.47222 12.2917 8.0625 11.7222 7.77083 11.0833C7.49306 10.4306 7.35417 9.73611 7.35417 9C7.35417 8.26389 7.49306 7.57639 7.77083 6.9375C8.0625 6.28472 8.47222 5.70833 9 5.20833C9.52778 5.70833 9.93056 6.28472 10.2083 6.9375C10.5 7.57639 10.6458 8.26389 10.6458 9C10.6458 9.73611 10.5 10.4306 10.2083 11.0833C9.93056 11.7222 9.52778 12.2917 9 12.7917Z" fill="#4285F4" />
</g>
<defs>
<clipPath id="clip0_4005_514">
<rect width="18" height="18" fill="white" />
</clipPath>
</defs>
</svg>