<svg xmlns="http://www.w3.org/2000/svg" width="18.0" height="18.0" viewBox="0.0 0.0 18.0 18.0" fill="none">
<g clip-path="url(#clip0_4005_506)">
<path d="M11.9167 11.1458L12.8542 10.2083L10.9792 8.35417C11.0903 8.14583 11.1736 7.94444 11.2292 7.75C11.2986 7.54167 11.3333 7.3125 11.3333 7.0625C11.3333 6.36805 11.0833 5.77083 10.5833 5.27083C10.0833 4.75694 9.47222 4.5 8.75 4.5C8.01389 4.5 7.39583 4.75 6.89583 5.25C6.40972 5.73611 6.16667 6.34028 6.16667 7.0625C6.16667 7.78472 6.40972 8.40278 6.89583 8.91667C7.39583 9.41667 8.00694 9.66667 8.72917 9.66667C8.95139 9.66667 9.16667 9.63889 9.375 9.58333C9.58333 9.52778 9.80556 9.4375 10.0417 9.3125L11.9167 11.1458ZM8.77083 8.33333C8.4375 8.33333 8.13889 8.20833 7.875 7.95833C7.625 7.70833 7.5 7.40972 7.5 7.0625C7.5 6.70139 7.625 6.40278 7.875 6.16667C8.13889 5.91667 8.4375 5.79167 8.77083 5.79167C9.13194 5.79167 9.43056 5.91667 9.66667 6.16667C9.91667 6.41667 10.0417 6.70833 10.0417 7.04167C10.0417 7.375 9.91667 7.67361 9.66667 7.9375C9.41667 8.20139 9.11806 8.33333 8.77083 8.33333ZM2.72917 13.375C2.3125 13.375 1.95833 13.2361 1.66667 12.9583C1.38889 12.6667 1.25 12.3125 1.25 11.8958V3.875C1.25 3.45833 1.38889 3.11111 1.66667 2.83333C1.95833 2.54167 2.3125 2.39583 2.72917 2.39583H15.2708C15.6875 2.39583 16.0347 2.54167 16.3125 2.83333C16.6042 3.11111 16.75 3.45833 16.75 3.875V11.8958C16.75 12.3125 16.6042 12.6667 16.3125 12.9583C16.0347 13.2361 15.6875 13.375 15.2708 13.375H2.72917ZM2.72917 12.1458H15.2708C15.3403 12.1458 15.4028 12.125 15.4583 12.0833C15.5139 12.0278 15.5417 11.9653 15.5417 11.8958V3.875C15.5417 3.80555 15.5139 3.74305 15.4583 3.6875C15.4028 3.63194 15.3403 3.60417 15.2708 3.60417H2.72917C2.65972 3.60417 2.59722 3.63194 2.54167 3.6875C2.5 3.74305 2.47917 3.80555 2.47917 3.875V11.8958C2.47917 11.9653 2.5 12.0278 2.54167 12.0833C2.59722 12.125 2.65972 12.1458 2.72917 12.1458ZM2.47917 12.1458C2.47917 12.1458 2.47917 12.125 2.47917 12.0833C2.47917 12.0278 2.47917 11.9653 2.47917 11.8958V3.875C2.47917 3.80555 2.47917 3.74305 2.47917 3.6875C2.47917 3.63194 2.47917 3.60417 2.47917 3.60417C2.47917 3.60417 2.47917 3.63194 2.47917 3.6875C2.47917 3.74305 2.47917 3.80555 2.47917 3.875V11.8958C2.47917 11.9653 2.47917 12.0278 2.47917 12.0833C2.47917 12.125 2.47917 12.1458 2.47917 12.1458ZM0.166667 15.5833V14.375H17.8333V15.5833H0.166667Z" fill="#4285F4" />
</g>
<defs>
<clipPath id="clip0_4005_506">
<rect width="18" height="18" fill="white" />
</clipPath>
</defs>
</svg>