<svg xmlns="http://www.w3.org/2000/svg" width="18.0" height="18.0" viewBox="0.0 0.0 18.0 18.0" fill="none">
<g clip-path="url(#clip0_4005_419)">
<path d="M8.18164 18H6.9541V3.27246H8.18164V18ZM11.6387 14.7275H10.4111V6.5459H11.6387V14.7275ZM4.68359 13.0908H3.45703V8.18164H4.68359V13.0908ZM14.5225 12.2725H13.2959V9H14.5225V12.2725ZM1.22754 11.25H0V10.0225H1.22754V11.25ZM14.4062 0C14.4795 0.000194673 14.5435 0.0500907 14.5615 0.121094C14.6165 0.339329 14.6881 0.552691 14.7773 0.759766C15.0099 1.30001 15.3293 1.77259 15.7344 2.17773C16.1397 2.58284 16.6122 2.90219 17.1523 3.13477C17.3596 3.22405 17.5728 3.29558 17.791 3.35059C17.8623 3.36857 17.9121 3.43334 17.9121 3.50684C17.912 3.58017 17.8622 3.64413 17.791 3.66211C17.5728 3.71712 17.3594 3.78864 17.1523 3.87793C16.6121 4.1105 16.1395 4.42985 15.7344 4.83496C15.3293 5.24026 15.0099 5.71275 14.7773 6.25293C14.6881 6.4602 14.6165 6.67337 14.5615 6.8916C14.5436 6.96277 14.4796 7.0125 14.4062 7.0127C14.3327 7.0127 14.268 6.96293 14.25 6.8916C14.195 6.67337 14.1235 6.46 14.0342 6.25293C13.8016 5.71277 13.4824 5.24005 13.0771 4.83496C12.6718 4.42986 12.1994 4.11049 11.6592 3.87793C11.4519 3.78864 11.2387 3.71712 11.0205 3.66211C10.9494 3.64409 10.8996 3.58013 10.8994 3.50684C10.8994 3.43337 10.9493 3.3686 11.0205 3.35059C11.2387 3.29558 11.4521 3.22405 11.6592 3.13477C12.1994 2.90219 12.672 2.58286 13.0771 2.17773C13.4823 1.77258 13.8016 1.30002 14.0342 0.759766C14.1235 0.552492 14.195 0.339329 14.25 0.121094C14.2681 0.0499371 14.3328 0 14.4062 0Z" fill="#4285F4" />
</g>
<defs>
<clipPath id="clip0_4005_419">
<rect width="18" height="18" fill="white" />
</clipPath>
</defs>
</svg>