<svg xmlns="http://www.w3.org/2000/svg" width="18.0" height="18.0" viewBox="0.0 0.0 18.0 18.0" fill="none">
<g clip-path="url(#clip0_4005_482)">
<path d="M3.85417 17.7083V17.0208C3.85417 15.1319 4.22917 13.6319 4.97917 12.5208C5.74306 11.4097 6.78472 10.2361 8.10417 9C6.78472 7.76389 5.74306 6.59028 4.97917 5.47917C4.21528 4.36805 3.83333 2.86805 3.83333 0.979166V0.291666H5.0625V0.979166C5.0625 1.11805 5.0625 1.26389 5.0625 1.41667C5.0625 1.55555 5.07639 1.6875 5.10417 1.8125H12.875C12.9028 1.6875 12.9167 1.55555 12.9167 1.41667C12.9306 1.26389 12.9375 1.11805 12.9375 0.979166V0.291666H14.1458V0.979166C14.1458 2.86805 13.7639 4.36805 13 5.47917C12.25 6.59028 11.2153 7.76389 9.89583 9C11.2153 10.2222 12.25 11.3958 13 12.5208C13.7639 13.6319 14.1458 15.1319 14.1458 17.0208V17.7083H12.9375V17.0208C12.9375 16.8819 12.9306 16.7431 12.9167 16.6042C12.9167 16.4514 12.9028 16.3125 12.875 16.1875H5.125C5.09722 16.3125 5.07639 16.4514 5.0625 16.6042C5.0625 16.7431 5.0625 16.8819 5.0625 17.0208V17.7083H3.85417ZM5.97917 4.75H12C12.1667 4.48611 12.3125 4.21528 12.4375 3.9375C12.5625 3.64583 12.6597 3.34028 12.7292 3.02083H5.27083C5.34028 3.35417 5.43056 3.65972 5.54167 3.9375C5.66667 4.21528 5.8125 4.48611 5.97917 4.75ZM9 8.16667C9.43056 7.77778 9.82639 7.40278 10.1875 7.04167C10.5625 6.68055 10.9097 6.31944 11.2292 5.95833H6.77083C7.07639 6.31944 7.40972 6.68055 7.77083 7.04167C8.14583 7.40278 8.55556 7.77778 9 8.16667ZM6.77083 12.0417H11.2292C10.9097 11.6806 10.5625 11.3194 10.1875 10.9583C9.82639 10.5972 9.43056 10.2222 9 9.83333C8.55556 10.2222 8.15278 10.5972 7.79167 10.9583C7.43056 11.3194 7.09028 11.6806 6.77083 12.0417ZM5.27083 14.9792H12.7292C12.6597 14.6458 12.5556 14.3403 12.4167 14.0625C12.2917 13.7847 12.1458 13.5139 11.9792 13.25H6C5.83333 13.5139 5.6875 13.7917 5.5625 14.0833C5.4375 14.3611 5.34028 14.6597 5.27083 14.9792Z" fill="#4285F4" />
</g>
<defs>
<clipPath id="clip0_4005_482">
<rect width="18" height="18" fill="white" />
</clipPath>
</defs>
</svg>