<svg xmlns="http://www.w3.org/2000/svg" width="18.0" height="18.0" viewBox="0.0 0.0 18.0 18.0" fill="none">
<g clip-path="url(#clip0_4005_496)">
<path d="M6.0625 12.5833V11.375H8.33333C8.26389 11.5556 8.20139 11.75 8.14583 11.9583C8.09028 12.1528 8.05556 12.3611 8.04167 12.5833H6.0625ZM6.10417 16.75C5.03472 16.75 4.125 16.375 3.375 15.625C2.625 14.875 2.25 13.9653 2.25 12.8958V5.95833C1.86111 5.93055 1.52778 5.78472 1.25 5.52083C0.986111 5.25694 0.854167 4.9375 0.854167 4.5625V2.66667C0.854167 2.26389 0.993056 1.93055 1.27083 1.66667C1.5625 1.38889 1.90278 1.25 2.29167 1.25H9.91667C10.3194 1.25 10.6597 1.38889 10.9375 1.66667C11.2153 1.93055 11.3542 2.26389 11.3542 2.66667V4.5625C11.3542 4.9375 11.2153 5.25694 10.9375 5.52083C10.6736 5.78472 10.3472 5.93055 9.95833 5.95833V9.16667C9.875 9.26389 9.79167 9.34722 9.70833 9.41667C9.63889 9.47222 9.55556 9.54167 9.45833 9.625H6.0625V8.39583H8.75V5.95833H3.47917V12.8958C3.47917 13.6319 3.72917 14.2569 4.22917 14.7708C4.74306 15.2708 5.36806 15.5208 6.10417 15.5208C6.54861 15.5208 6.95833 15.4167 7.33333 15.2083C7.70833 15 8.00695 14.7222 8.22917 14.375C8.27083 14.625 8.34028 14.8611 8.4375 15.0833C8.53472 15.2917 8.63889 15.4931 8.75 15.6875C8.40278 16.0208 8.00694 16.2847 7.5625 16.4792C7.11806 16.6597 6.63194 16.75 6.10417 16.75ZM2.35417 4.75H9.85417C9.9375 4.75 10.0069 4.72222 10.0625 4.66667C10.1181 4.61111 10.1458 4.54861 10.1458 4.47917V2.75C10.1458 2.66667 10.1181 2.59722 10.0625 2.54167C10.0069 2.48611 9.9375 2.45833 9.85417 2.45833H2.35417C2.27083 2.45833 2.20139 2.48611 2.14583 2.54167C2.10417 2.59722 2.08333 2.66667 2.08333 2.75V4.47917C2.08333 4.54861 2.10417 4.61111 2.14583 4.66667C2.20139 4.72222 2.27083 4.75 2.35417 4.75ZM12.9583 15.1667C13.5278 15.1667 14.0139 14.9653 14.4167 14.5625C14.8194 14.1597 15.0208 13.6736 15.0208 13.1042C15.0208 12.5347 14.8194 12.0486 14.4167 11.6458C14.0278 11.2431 13.5486 11.0417 12.9792 11.0417C12.4097 11.0417 11.9236 11.2431 11.5208 11.6458C11.1181 12.0347 10.9167 12.5208 10.9167 13.1042C10.9167 13.6736 11.1111 14.1597 11.5 14.5625C11.9028 14.9653 12.3889 15.1667 12.9583 15.1667ZM16.8958 17.8958L14.8125 15.8125C14.5486 15.9931 14.2569 16.1319 13.9375 16.2292C13.6181 16.3264 13.2917 16.375 12.9583 16.375C12.0556 16.375 11.2847 16.0556 10.6458 15.4167C10.0069 14.7778 9.6875 14.0069 9.6875 13.1042C9.6875 12.1875 10.0069 11.4097 10.6458 10.7708C11.2847 10.1319 12.0556 9.8125 12.9583 9.8125C13.875 9.8125 14.6528 10.1319 15.2917 10.7708C15.9306 11.4097 16.25 12.1875 16.25 13.1042C16.25 13.4236 16.2014 13.75 16.1042 14.0833C16.0069 14.4028 15.8681 14.6944 15.6875 14.9583L17.7708 17.0417L16.8958 17.8958ZM2.08333 4.75C2.08333 4.75 2.08333 4.72222 2.08333 4.66667C2.08333 4.61111 2.08333 4.54861 2.08333 4.47917V2.75C2.08333 2.66667 2.08333 2.59722 2.08333 2.54167C2.08333 2.48611 2.08333 2.45833 2.08333 2.45833C2.08333 2.45833 2.08333 2.48611 2.08333 2.54167C2.08333 2.59722 2.08333 2.66667 2.08333 2.75V4.47917C2.08333 4.54861 2.08333 4.61111 2.08333 4.66667C2.08333 4.72222 2.08333 4.75 2.08333 4.75Z" fill="#4285F4" />
</g>
<defs>
<clipPath id="clip0_4005_496">
<rect width="18" height="18" fill="white" />
</clipPath>
</defs>
</svg>