<svg xmlns="http://www.w3.org/2000/svg" width="18.0" height="18.0" viewBox="0.0 0.0 18.0 18.0" fill="none">
<g clip-path="url(#clip0_4005_508)">
<path d="M9.5625 8.29167H10.75V6.79167H12.25V5.60417H10.75V4.10417H9.5625V5.60417H8.0625V6.79167H9.5625V8.29167ZM8.0625 11.2292H12.25V10.0625H8.0625V11.2292ZM5.89583 14.6042C5.49306 14.6042 5.14583 14.4583 4.85417 14.1667C4.5625 13.875 4.41667 13.5278 4.41667 13.125V1.58333C4.41667 1.18055 4.5625 0.833333 4.85417 0.541666C5.14583 0.249999 5.49306 0.104165 5.89583 0.104165H12.3125L15.8958 3.70833V13.125C15.8958 13.5278 15.75 13.875 15.4583 14.1667C15.1667 14.4583 14.8194 14.6042 14.4167 14.6042H5.89583ZM5.89583 13.3958H14.4167C14.4861 13.3958 14.5486 13.3681 14.6042 13.3125C14.6597 13.2569 14.6875 13.1944 14.6875 13.125V4.1875L11.8333 1.33333H5.89583C5.82639 1.33333 5.76389 1.36111 5.70833 1.41667C5.66667 1.45833 5.64583 1.51389 5.64583 1.58333V13.125C5.64583 13.1944 5.66667 13.2569 5.70833 13.3125C5.76389 13.3681 5.82639 13.3958 5.89583 13.3958ZM2.625 17.875C2.22222 17.875 1.875 17.7292 1.58333 17.4375C1.29167 17.1458 1.14583 16.7986 1.14583 16.3958V5.4375H2.375V16.3958C2.375 16.4653 2.39583 16.5278 2.4375 16.5833C2.49306 16.6389 2.55556 16.6667 2.625 16.6667H11.0625V17.875H2.625ZM5.64583 13.3958C5.64583 13.3958 5.64583 13.3681 5.64583 13.3125C5.64583 13.2569 5.64583 13.1944 5.64583 13.125V1.58333C5.64583 1.51389 5.64583 1.45833 5.64583 1.41667C5.64583 1.36111 5.64583 1.33333 5.64583 1.33333V5.125V13.125C5.64583 13.1944 5.64583 13.2569 5.64583 13.3125C5.64583 13.3681 5.64583 13.3958 5.64583 13.3958Z" fill="#4285F4" />
</g>
<defs>
<clipPath id="clip0_4005_508">
<rect width="18" height="18" fill="white" />
</clipPath>
</defs>
</svg>