<svg xmlns="http://www.w3.org/2000/svg" width="18.0" height="18.0" viewBox="0.0 0.0 18.0 18.0" fill="none">
<g clip-path="url(#clip0_4005_516)">
<path d="M7.29167 10.7083V7.29167H10.7083V10.7083H7.29167ZM8.5 9.5H9.5V8.5H8.5V9.5ZM6.64583 15.6042V13.7292H5.72917C5.32639 13.7292 4.97917 13.5903 4.6875 13.3125C4.40972 13.0208 4.27083 12.6736 4.27083 12.2708V11.3542H2.39583V10.1458H4.27083V7.85417H2.39583V6.64583H4.27083V5.72917C4.27083 5.32639 4.40972 4.98611 4.6875 4.70833C4.97917 4.41667 5.32639 4.27083 5.72917 4.27083H6.64583V2.39583H7.85417V4.27083H10.1458V2.39583H11.3542V4.27083H12.2708C12.6736 4.27083 13.0139 4.41667 13.2917 4.70833C13.5833 4.98611 13.7292 5.32639 13.7292 5.72917V6.64583H15.6042V7.85417H13.7292V10.1458H15.6042V11.3542H13.7292V12.2708C13.7292 12.6736 13.5833 13.0208 13.2917 13.3125C13.0139 13.5903 12.6736 13.7292 12.2708 13.7292H11.3542V15.6042H10.1458V13.7292H7.85417V15.6042H6.64583ZM12.2708 12.5208C12.3264 12.5208 12.3819 12.4931 12.4375 12.4375C12.4931 12.3819 12.5208 12.3264 12.5208 12.2708V5.72917C12.5208 5.67361 12.4931 5.61805 12.4375 5.5625C12.3819 5.50694 12.3264 5.47917 12.2708 5.47917H5.72917C5.67361 5.47917 5.61806 5.50694 5.5625 5.5625C5.50694 5.61805 5.47917 5.67361 5.47917 5.72917V12.2708C5.47917 12.3264 5.50694 12.3819 5.5625 12.4375C5.61806 12.4931 5.67361 12.5208 5.72917 12.5208H12.2708Z" fill="#4285F4" />
</g>
<defs>
<clipPath id="clip0_4005_516">
<rect width="18" height="18" fill="white" />
</clipPath>
</defs>
</svg>