<svg xmlns="http://www.w3.org/2000/svg" width="18.0" height="18.0" viewBox="0.0 0.0 18.0 18.0" fill="none">
<g clip-path="url(#clip0_4005_427)">
<path d="M8.56738 0C12.6167 -1.77003e-07 16.0076 2.81001 16.9023 6.58594C17.526 6.69609 17.9999 7.23932 18 7.89453C18 8.47308 17.63 8.96328 17.1143 9.14648C16.8412 13.2395 13.6958 16.5427 9.6748 17.0615C9.50745 17.6048 9.0025 17.9999 8.4043 18C7.78753 18 7.26988 17.5801 7.11914 17.0107C3.07761 16.3222 0.000195872 12.8061 0 8.56836C-8.65401e-08 6.58855 0.673179 4.76632 1.80078 3.31543C1.74767 3.17174 1.71778 3.01664 1.71777 2.85449C1.71777 2.1197 2.31403 1.52441 3.04883 1.52441C3.22688 1.52447 3.39656 1.55954 3.55176 1.62305C4.96177 0.602661 6.69387 0.000128489 8.56738 0ZM7.7002 13.8613C7.1777 14.1547 6.6675 14.399 6.17871 14.5859C5.67581 14.7782 5.18468 14.9136 4.72168 14.9834C5.49825 15.45 6.36649 15.7783 7.29297 15.9375C7.53099 15.577 7.93999 15.3389 8.4043 15.3389C8.88725 15.3389 9.30892 15.5973 9.54199 15.9824C10.3099 15.8825 11.0404 15.6661 11.7168 15.3516C11.3143 15.3133 10.9011 15.2339 10.4873 15.1191C9.58742 14.8696 8.64033 14.4422 7.7002 13.8613ZM13.4902 8.63574C12.85 9.52707 12.0587 10.4312 11.1455 11.291C10.3606 12.0299 9.54791 12.6771 8.74512 13.2168C9.44493 13.6059 10.1338 13.893 10.7803 14.0723C12.291 14.4911 13.4247 14.2907 14.0361 13.6523C14.6474 13.014 14.7952 11.8763 14.3047 10.3926C14.1183 9.82903 13.8449 9.23607 13.4902 8.63574ZM3.65039 10.1699C3.50654 10.4252 3.37986 10.675 3.27051 10.917C2.96562 11.5918 2.80881 12.1823 2.78906 12.6543C2.7695 13.1236 2.88441 13.43 3.06543 13.6211C3.24665 13.8122 3.54785 13.9441 4.01953 13.9512C4.49364 13.9582 5.09371 13.8364 5.78711 13.5713C6.07569 13.4609 6.37486 13.3254 6.68359 13.1699C6.32024 12.899 5.96048 12.6064 5.60938 12.291C5.47395 12.3375 5.32891 12.3643 5.17773 12.3643C4.44314 12.364 3.84766 11.7688 3.84766 11.0342C3.84766 10.8602 3.88167 10.6943 3.94238 10.542C3.84219 10.4186 3.74485 10.2945 3.65039 10.1699ZM9.40234 4.34766C8.49004 4.90564 7.53376 5.63181 6.60645 6.50488C5.67346 7.38332 4.88682 8.29873 4.27441 9.17969C4.41701 9.38112 4.5675 9.58302 4.72754 9.7832C4.86825 9.73251 5.01957 9.70415 5.17773 9.7041C5.91252 9.7041 6.50878 10.2994 6.50879 11.0342C6.50879 11.2146 6.47132 11.3861 6.40625 11.543C6.83976 11.9276 7.28292 12.2738 7.72754 12.5811C8.60133 12.0338 9.5119 11.3338 10.3965 10.501C11.3889 9.56659 12.2149 8.59006 12.8428 7.6582C12.6808 7.43711 12.509 7.21602 12.3262 6.99707C12.2006 7.0364 12.0672 7.05854 11.9287 7.05859C11.1939 7.05859 10.5977 6.46233 10.5977 5.72754C10.5977 5.58302 10.6204 5.44375 10.6631 5.31348C10.2482 4.95664 9.82584 4.63406 9.40234 4.34766ZM1.61719 5.80371C1.27669 6.65901 1.08789 7.5917 1.08789 8.56836C1.08795 9.72223 1.34967 10.8151 1.81641 11.791C1.91511 11.3663 2.07225 10.9224 2.27637 10.4707C2.4646 10.0542 2.69674 9.6232 2.96875 9.18457C2.49916 8.43375 2.13806 7.67872 1.89746 6.95117C1.77035 6.56674 1.67555 6.18168 1.61719 5.80371ZM15.2061 5.12402C15.1095 5.57617 14.9472 6.05212 14.7285 6.53613C14.5673 6.89277 14.3724 7.2592 14.1494 7.63281C14.6772 8.44485 15.0803 9.26402 15.3408 10.0518C15.4574 10.4043 15.5454 10.7577 15.6045 11.1055C15.8372 10.4603 15.9819 9.77418 16.0283 9.06055C15.6175 8.83409 15.3389 8.39678 15.3389 7.89453C15.3389 7.47081 15.538 7.09419 15.8467 6.85059C15.7038 6.24295 15.487 5.66447 15.2061 5.12402ZM6.45703 2.93164C5.64666 2.70695 4.94505 2.66105 4.37402 2.76465C4.37601 2.79436 4.37891 2.82428 4.37891 2.85449C4.37888 3.58912 3.78341 4.18434 3.04883 4.18457C2.94649 4.18457 2.84668 4.17227 2.75098 4.15039C2.56248 4.78665 2.60551 5.62204 2.93262 6.61133C3.10052 7.11902 3.33962 7.65018 3.64453 8.18945C4.26024 7.35721 5.00607 6.51744 5.85742 5.71582C6.67696 4.94423 7.52686 4.27142 8.36426 3.71777C7.70839 3.36403 7.06421 3.10001 6.45703 2.93164ZM12.9844 3.05469C12.5102 3.04767 11.9102 3.17041 11.2168 3.43555C10.9731 3.52872 10.7213 3.63924 10.4629 3.76465C10.7776 3.99553 11.0892 4.24348 11.3955 4.50781C11.5586 4.43651 11.7394 4.39746 11.9287 4.39746C12.6632 4.39772 13.2586 4.99304 13.2588 5.72754C13.2588 5.92217 13.2157 6.10681 13.1406 6.27344C13.247 6.40018 13.3498 6.52815 13.4502 6.65625C13.5541 6.46324 13.6498 6.2748 13.7334 6.08984C14.0384 5.41486 14.1951 4.82468 14.2148 4.35254C14.2345 3.88278 14.1188 3.57588 13.9375 3.38477C13.7562 3.19393 13.4557 3.06175 12.9844 3.05469ZM8.56738 1.08887C7.54111 1.08895 6.56322 1.29579 5.67285 1.66992C6.0269 1.71229 6.38822 1.78349 6.75 1.88379C7.61527 2.12376 8.52512 2.52723 9.42969 3.07422C9.90843 2.81197 10.3767 2.59276 10.8262 2.4209C11.3011 2.23932 11.765 2.10638 12.2051 2.0332C11.1282 1.43252 9.88799 1.08887 8.56738 1.08887Z" fill="#4285F4" />
</g>
<defs>
<clipPath id="clip0_4005_427">
<rect width="18" height="18" fill="white" />
</clipPath>
</defs>
</svg>