<svg xmlns="http://www.w3.org/2000/svg" width="18.0" height="18.0" viewBox="0.0 0.0 18.0 18.0" fill="none">
<g clip-path="url(#clip0_4005_384)">
<path d="M9.03516 2.3457C9.60012 3.65804 10.3518 4.83287 11.2891 5.86426L11.7021 6.29785C12.8343 7.42941 14.1543 8.31907 15.6543 8.96484C15.6826 8.97703 15.7119 8.98707 15.7402 8.99902L15.6543 9.03516C14.342 9.60012 13.1671 10.3518 12.1357 11.2891L11.7021 11.7021C10.5706 12.8343 9.68093 14.1543 9.03516 15.6543C9.02292 15.6827 9.012 15.7118 9 15.7402L8.96484 15.6543C8.31924 14.1546 7.43035 12.8341 6.29785 11.7021C5.16574 10.5706 3.84575 9.68093 2.3457 9.03516C2.31703 9.0228 2.28754 9.01211 2.25879 9L2.3457 8.96484C3.8456 8.31914 5.16605 7.42965 6.29785 6.29785C7.42965 5.16605 8.31914 3.8456 8.96484 2.3457C8.97715 2.31714 8.98696 2.28742 8.99902 2.25879L9.03516 2.3457Z" stroke="#4285F4" stroke-width="2" />
</g>
<defs>
<clipPath id="clip0_4005_384">
<rect width="18" height="18" fill="white" />
</clipPath>
</defs>
</svg>