<svg xmlns="http://www.w3.org/2000/svg" width="18.0" height="18.0" viewBox="0.0 0.0 18.0 18.0" fill="none">
<path d="M9.71094 3.31152H2.24414V15.7559H14.6885V8.28906H15.9336V15.7559C15.9335 16.0876 15.8084 16.3781 15.5596 16.627C15.3108 16.8756 15.0202 17 14.6885 17H2.24414C1.91242 16.9999 1.62186 16.8758 1.37305 16.627C1.12424 16.3781 1.00008 16.0876 1 15.7559V3.31152C1 2.97984 1.12441 2.68924 1.37305 2.44043C1.62186 2.19162 1.91242 2.06648 2.24414 2.06641H9.71094V3.31152ZM13.5479 13.7441H3.40625L5.83301 10.5908L7.76172 13.2256L10.499 9.67871L13.5479 13.7441ZM13.0889 1C13.1709 1 13.2427 1.05616 13.2627 1.13574C13.324 1.37908 13.4034 1.61676 13.5029 1.84766C13.7623 2.45026 14.1184 2.97778 14.5703 3.42969C15.0224 3.88159 15.5497 4.23765 16.1523 4.49707C16.3835 4.59663 16.6209 4.67596 16.8643 4.7373C16.9438 4.75731 17 4.8291 17 4.91113C17 4.99315 16.9438 5.06496 16.8643 5.08496C16.6209 5.14631 16.3832 5.22564 16.1523 5.3252C15.5497 5.58461 15.0222 5.94068 14.5703 6.39258C14.1184 6.84471 13.7623 7.372 13.5029 7.97461C13.4034 8.20574 13.324 8.44317 13.2627 8.68652C13.2427 8.76611 13.1709 8.82227 13.0889 8.82227C13.0069 8.82225 12.935 8.76609 12.915 8.68652C12.8537 8.44318 12.7744 8.20551 12.6748 7.97461C12.4154 7.37199 12.0596 6.84449 11.6074 6.39258C11.1553 5.94067 10.628 5.58461 10.0254 5.3252C9.79426 5.22563 9.55683 5.14631 9.31348 5.08496C9.2339 5.06496 9.17774 4.99315 9.17773 4.91113C9.17773 4.8291 9.23389 4.75731 9.31348 4.7373C9.55683 4.67596 9.79448 4.59664 10.0254 4.49707C10.628 4.23766 11.1555 3.88159 11.6074 3.42969C12.0593 2.97779 12.4154 2.45026 12.6748 1.84766C12.7744 1.61654 12.8537 1.37907 12.915 1.13574C12.935 1.05617 13.0069 1.00002 13.0889 1Z" fill="#4285F4" />
</svg>