<svg xmlns="http://www.w3.org/2000/svg" width="18.0" height="18.0" viewBox="0.0 0.0 18.0 18.0" fill="none">
<g clip-path="url(#clip0_4005_500)">
<path d="M9 12.2292C8.09722 12.2292 7.33333 11.9167 6.70833 11.2917C6.08333 10.6667 5.77083 9.90278 5.77083 9C5.77083 8.09722 6.08333 7.33333 6.70833 6.70833C7.33333 6.08333 8.09722 5.77083 9 5.77083C9.90278 5.77083 10.6667 6.08333 11.2917 6.70833C11.9167 7.33333 12.2292 8.09722 12.2292 9C12.2292 9.90278 11.9167 10.6667 11.2917 11.2917C10.6667 11.9167 9.90278 12.2292 9 12.2292ZM9 11C9.55556 11 10.0278 10.8056 10.4167 10.4167C10.8194 10.0278 11.0208 9.55556 11.0208 9C11.0208 8.44444 10.8194 7.97222 10.4167 7.58333C10.0278 7.18056 9.55556 6.97917 9 6.97917C8.44444 6.97917 7.97222 7.18056 7.58333 7.58333C7.19444 7.97222 7 8.44444 7 9C7 9.55556 7.19444 10.0278 7.58333 10.4167C7.97222 10.8056 8.44444 11 9 11ZM13.4583 16.7917C13.5972 16.375 13.7222 15.8958 13.8333 15.3542C13.9583 14.7986 14.0694 14.0903 14.1667 13.2292C13.5556 14.0208 12.7917 14.6389 11.875 15.0833C10.9722 15.5139 10.0139 15.7292 9 15.7292C7.44444 15.7292 6.08333 15.6736 4.91667 15.5625C3.76389 15.4375 2.52778 15.1736 1.20833 14.7708V13.4583C1.65278 13.625 2.14583 13.7639 2.6875 13.875C3.22917 13.9722 3.93056 14.0694 4.79167 14.1667C4.02778 13.5972 3.41667 12.8542 2.95833 11.9375C2.5 11.0208 2.27083 10.0417 2.27083 9C2.27083 7.79167 2.32639 6.54861 2.4375 5.27083C2.5625 3.97917 2.82639 2.625 3.22917 1.20833H4.52083C4.38194 1.79167 4.25694 2.35417 4.14583 2.89583C4.03472 3.4375 3.9375 4.0625 3.85417 4.77083C4.4375 3.99305 5.18056 3.38194 6.08333 2.9375C6.98611 2.49305 7.95833 2.27083 9 2.27083C10.4583 2.27083 11.7847 2.33333 12.9792 2.45833C14.1875 2.56944 15.4583 2.82639 16.7917 3.22917V4.52083C16.2639 4.36805 15.7083 4.23611 15.125 4.125C14.5417 4 13.9167 3.90278 13.25 3.83333C14.0556 4.47222 14.6667 5.24306 15.0833 6.14583C15.5139 7.04861 15.7292 8 15.7292 9C15.7292 10.4583 15.6597 11.7986 15.5208 13.0208C15.3819 14.2292 15.125 15.4861 14.75 16.7917H13.4583ZM9 14.5208C10.5417 14.5208 11.8472 13.9861 12.9167 12.9167C13.9861 11.8472 14.5208 10.5417 14.5208 9C14.5208 7.45833 13.9861 6.15278 12.9167 5.08333C11.8472 4.01389 10.5417 3.47917 9 3.47917C7.47222 3.47917 6.16667 4.01389 5.08333 5.08333C4.01389 6.15278 3.47917 7.45833 3.47917 9C3.47917 10.5278 4.01389 11.8333 5.08333 12.9167C6.15278 13.9861 7.45833 14.5208 9 14.5208Z" fill="#4285F4" />
</g>
<defs>
<clipPath id="clip0_4005_500">
<rect width="18" height="18" fill="white" />
</clipPath>
</defs>
</svg>