<svg xmlns="http://www.w3.org/2000/svg" width="100.0" height="100.0" viewBox="0.0 0.0 100.0 100.0" fill="none">
<rect width="100" height="100" fill="#19191A" />
<rect width="100" height="100" fill="url(#paint0_linear_4005_674)" fill-opacity="0.2" />
<path d="M47.333 75.333H43.833V33.333H47.333V75.333ZM57.1914 66H53.6914V42.667H57.1914V66ZM37.3584 61.333H33.8584V47.333H37.3584V61.333ZM65.416 59H61.916V49.667H65.416V59ZM27.5 56.083H24V52.583H27.5V56.083ZM65.083 24C65.2927 24 65.4752 24.1432 65.5264 24.3467C65.6832 24.9691 65.8879 25.5764 66.1426 26.167C66.8059 27.7077 67.7157 29.0565 68.8711 30.2119C70.0271 31.3673 71.3753 32.2771 72.916 32.9404C73.5071 33.1951 74.114 33.3998 74.7363 33.5566C74.9398 33.6078 75.083 33.7903 75.083 34C75.083 34.2097 74.9398 34.3922 74.7363 34.4434C74.114 34.6002 73.5066 34.8049 72.916 35.0596C71.3753 35.7229 70.0265 36.6327 68.8711 37.7881C67.7157 38.9441 66.8059 40.2923 66.1426 41.833C65.8879 42.4241 65.6832 43.0309 65.5264 43.6533C65.4752 43.8568 65.2927 44 65.083 44C64.8733 44 64.6908 43.8568 64.6396 43.6533C64.4828 43.0309 64.2781 42.4235 64.0234 41.833C63.3602 40.2923 62.4509 38.9435 61.2949 37.7881C60.1389 36.6327 58.7907 35.7229 57.25 35.0596C56.6589 34.8049 56.0521 34.6002 55.4297 34.4434C55.2262 34.3922 55.083 34.2097 55.083 34C55.083 33.7903 55.2262 33.6078 55.4297 33.5566C56.0521 33.3998 56.6595 33.1951 57.25 32.9404C58.7907 32.2771 60.1395 31.3673 61.2949 30.2119C62.4503 29.0565 63.3602 27.7077 64.0234 26.167C64.2781 25.5759 64.4828 24.9691 64.6396 24.3467C64.6908 24.1432 64.8733 24 65.083 24Z" fill="url(#paint1_linear_4005_674)" />
<defs>
<linearGradient id="paint0_linear_4005_674" x1="50" y1="0" x2="50" y2="100" gradientUnits="userSpaceOnUse">
<stop stop-color="#19191A" stop-opacity="0" />
<stop offset="1" stop-color="#0056CF" />
</linearGradient>
<linearGradient id="paint1_linear_4005_674" x1="39.8982" y1="57.181" x2="63.1001" y2="37.7147" gradientUnits="userSpaceOnUse">
<stop stop-color="#346BF1" />
<stop offset="0.371606" stop-color="#3186FF" />
<stop offset="0.776981" stop-color="#4FA0FF" />
</linearGradient>
</defs>
</svg>