<svg xmlns="http://www.w3.org/2000/svg" width="18.0" height="18.0" viewBox="0.0 0.0 18.0 18.0" fill="none">
<g clip-path="url(#clip0_4005_494)">
<path d="M11.4792 16.7083C11.3125 16.7083 11.1667 16.6528 11.0417 16.5417C10.9306 16.4167 10.875 16.2639 10.875 16.0833L10.8958 15.125C10.5486 15.0833 10.2153 15 9.89583 14.875C9.59028 14.7361 9.29861 14.5625 9.02083 14.3542L8.14583 15.25C8.02083 15.375 7.875 15.4444 7.70833 15.4583C7.55556 15.4583 7.41667 15.3889 7.29167 15.25C7.16667 15.125 7.10417 14.9861 7.10417 14.8333C7.10417 14.6667 7.16667 14.5208 7.29167 14.3958L8.16667 13.5C8.11111 13.4306 8.0625 13.3611 8.02083 13.2917C7.97917 13.2083 7.9375 13.125 7.89583 13.0417L7.3125 11.8542C7.28472 11.8264 7.26389 11.7986 7.25 11.7708C7.23611 11.7292 7.21528 11.6944 7.1875 11.6667L6.0625 12.7708C5.9375 12.8958 5.79167 12.9653 5.625 12.9792C5.45833 12.9792 5.3125 12.9167 5.1875 12.7917C5.0625 12.6667 5 12.5208 5 12.3542C5 12.1875 5.0625 12.0417 5.1875 11.9167L6.3125 10.8125C6.28472 10.7847 6.25 10.7639 6.20833 10.75C6.18056 10.7222 6.15278 10.7014 6.125 10.6875L4.95833 10.125C4.90278 10.0833 4.84722 10.0556 4.79167 10.0417C4.75 10.0139 4.71528 9.97917 4.6875 9.9375L3.77083 10.8542C3.64583 10.9792 3.5 11.0417 3.33333 11.0417C3.18056 11.0417 3.04167 10.9792 2.91667 10.8542C2.79167 10.7292 2.72917 10.5833 2.72917 10.4167C2.72917 10.25 2.79167 10.1042 2.91667 9.97917L3.75 9.14583C3.51389 8.85417 3.31944 8.54167 3.16667 8.20833C3.02778 7.86111 2.9375 7.49306 2.89583 7.10417H1.91667C1.75 7.10417 1.60417 7.04861 1.47917 6.9375C1.35417 6.8125 1.29167 6.66667 1.29167 6.5C1.29167 6.33333 1.35417 6.19444 1.47917 6.08333C1.60417 5.95833 1.75 5.89583 1.91667 5.89583H2.9375C2.99306 5.61805 3.06944 5.36111 3.16667 5.125C3.27778 4.88889 3.41667 4.65972 3.58333 4.4375L2.72917 3.58333C2.60417 3.47222 2.54167 3.33333 2.54167 3.16667C2.54167 3 2.60417 2.85417 2.72917 2.72917C2.85417 2.60417 3 2.54167 3.16667 2.54167C3.33333 2.54167 3.47222 2.60417 3.58333 2.72917L4.45833 3.5625C4.66667 3.40972 4.88889 3.28472 5.125 3.1875C5.36111 3.07639 5.61806 2.99306 5.89583 2.9375V1.91667C5.89583 1.75 5.95139 1.60417 6.0625 1.47917C6.1875 1.35417 6.33333 1.29167 6.5 1.29167C6.66667 1.29167 6.80556 1.35417 6.91667 1.47917C7.04167 1.59028 7.10417 1.72917 7.10417 1.89583V2.875C7.47917 2.93055 7.82639 3.02083 8.14583 3.14583C8.47917 3.27083 8.78472 3.44444 9.0625 3.66667L9.8125 2.91667C9.9375 2.77778 10.0833 2.70833 10.25 2.70833C10.4167 2.70833 10.5556 2.77083 10.6667 2.89583C10.7917 3.02083 10.8542 3.16667 10.8542 3.33333C10.8542 3.5 10.7917 3.65278 10.6667 3.79167L9.875 4.58333C9.93056 4.65278 9.97222 4.72222 10 4.79167C10.0417 4.84722 10.0764 4.90972 10.1042 4.97917L10.6667 6.10417C10.6944 6.13194 10.7153 6.15972 10.7292 6.1875C10.7431 6.21528 10.7639 6.24306 10.7917 6.27083L11.8333 5.22917C11.9583 5.10417 12.0972 5.04167 12.25 5.04167C12.4167 5.04167 12.5625 5.10417 12.6875 5.22917C12.8125 5.35417 12.875 5.5 12.875 5.66667C12.875 5.81944 12.8125 5.95833 12.6875 6.08333L11.625 7.14583C11.6667 7.17361 11.7014 7.20139 11.7292 7.22917C11.7708 7.24305 11.8125 7.26389 11.8542 7.29167L13.0417 7.875C13.1389 7.93055 13.2222 7.98611 13.2917 8.04167C13.375 8.08333 13.4653 8.13889 13.5625 8.20833L14.4167 7.375C14.5417 7.25 14.6806 7.1875 14.8333 7.1875C15 7.1875 15.1458 7.25 15.2708 7.375C15.3958 7.48611 15.4583 7.625 15.4583 7.79167C15.4583 7.95833 15.3958 8.10417 15.2708 8.22917L14.4375 9.08333C14.6319 9.36111 14.7847 9.65278 14.8958 9.95833C15.0208 10.2639 15.0972 10.5764 15.125 10.8958H16.0833C16.25 10.8958 16.3889 10.9583 16.5 11.0833C16.625 11.1944 16.6875 11.3333 16.6875 11.5C16.6875 11.6667 16.625 11.8125 16.5 11.9375C16.3889 12.0486 16.25 12.1042 16.0833 12.1042H15.0625C15.0069 12.3819 14.9236 12.6458 14.8125 12.8958C14.7153 13.1319 14.5833 13.3611 14.4167 13.5833L15.2708 14.4167C15.3958 14.5417 15.4583 14.6875 15.4583 14.8542C15.4583 15.0069 15.3958 15.1528 15.2708 15.2917C15.1319 15.4167 14.9861 15.4792 14.8333 15.4792C14.6806 15.4792 14.5347 15.4097 14.3958 15.2708L13.5417 14.4375C13.3333 14.5903 13.1111 14.7222 12.875 14.8333C12.6389 14.9306 12.3819 15.0069 12.1042 15.0625L12.0833 16.0833C12.0833 16.2639 12.0208 16.4167 11.8958 16.5417C11.7847 16.6528 11.6458 16.7083 11.4792 16.7083ZM11.3333 13.9375C12.1528 13.9375 12.8194 13.6319 13.3333 13.0208C13.8472 12.3958 14.0347 11.6806 13.8958 10.875C13.8264 10.4583 13.6667 10.0833 13.4167 9.75C13.1806 9.41667 12.875 9.15972 12.5 8.97917L11.1458 8.29167C10.8264 8.13889 10.5417 7.94444 10.2917 7.70833C10.0417 7.45833 9.84028 7.17361 9.6875 6.85417L9.02083 5.5C8.79861 5.05555 8.47222 4.70833 8.04167 4.45833C7.625 4.19444 7.16667 4.0625 6.66667 4.0625C5.86111 4.0625 5.19444 4.36805 4.66667 4.97917C4.15278 5.59028 3.96528 6.29861 4.10417 7.10417C4.17361 7.52083 4.32639 7.89583 4.5625 8.22917C4.8125 8.5625 5.13195 8.82639 5.52083 9.02083L6.85417 9.6875C7.17361 9.84028 7.45139 10.0417 7.6875 10.2917C7.9375 10.5417 8.14583 10.8194 8.3125 11.125L8.97917 12.5C9.20139 12.9444 9.52083 13.2986 9.9375 13.5625C10.3681 13.8125 10.8333 13.9375 11.3333 13.9375ZM6.75 7.9375C7.08333 7.9375 7.36111 7.82639 7.58333 7.60417C7.81944 7.36806 7.9375 7.08333 7.9375 6.75C7.9375 6.43056 7.81944 6.15278 7.58333 5.91667C7.36111 5.68055 7.08333 5.5625 6.75 5.5625C6.41667 5.5625 6.13194 5.68055 5.89583 5.91667C5.67361 6.13889 5.5625 6.41667 5.5625 6.75C5.5625 7.08333 5.67361 7.36806 5.89583 7.60417C6.13194 7.82639 6.41667 7.9375 6.75 7.9375ZM11 12.375C11.25 12.375 11.4583 12.2917 11.625 12.125C11.7917 11.9583 11.875 11.75 11.875 11.5C11.875 11.25 11.7917 11.0417 11.625 10.875C11.4583 10.7083 11.25 10.625 11 10.625C10.75 10.625 10.5417 10.7083 10.375 10.875C10.2083 11.0417 10.125 11.25 10.125 11.5C10.125 11.75 10.2083 11.9583 10.375 12.125C10.5417 12.2917 10.75 12.375 11 12.375Z" fill="#4285F4" />
</g>
<defs>
<clipPath id="clip0_4005_494">
<rect width="18" height="18" fill="white" />
</clipPath>
</defs>
</svg>