<svg xmlns="http://www.w3.org/2000/svg" width="18.0" height="18.0" viewBox="0.0 0.0 18.0 18.0" fill="none">
<g clip-path="url(#clip0_4005_431)">
<path d="M8.43359 0.0976302C8.83028 -0.130963 9.15137 0.055633 9.15137 0.513646V4.32322L12.8574 2.1865C13.2541 1.9579 13.5762 2.1445 13.5762 2.60251V6.36033L17.2812 4.22361C17.6778 3.99509 17.9998 4.18097 18 4.63865V12.4131C17.9999 12.871 17.6779 13.4282 17.2812 13.6572L10.0479 17.8301C9.65116 18.0589 9.3284 17.8737 9.32812 17.416V13.7265L5.61133 15.8037C5.21901 16.0227 4.9043 15.8348 4.9043 15.3818V11.6621L1.18457 13.7177C0.793686 13.9337 0.480469 13.7453 0.480469 13.2939V5.97068C0.188853 5.74859 -3.45294e-08 5.39851 0 5.00388C0.000156804 4.33262 0.544925 3.78806 1.2168 3.78806C1.42297 3.78808 1.61696 3.84019 1.78711 3.93064L8.43359 0.0976302ZM11.0547 9.03122C11.0573 9.06377 11.0605 9.09664 11.0605 9.12986C11.0605 9.60766 10.784 10.02 10.3828 10.2187V16.4199L16.9463 12.6338V5.63376L11.0547 9.03122ZM6.48633 8.02829C6.33931 8.1657 6.1592 8.26707 5.95801 8.31833V14.3926L9.32812 12.5107V10.2295C8.91434 10.0354 8.62699 9.61685 8.62695 9.12986C8.62695 9.09603 8.62815 9.0624 8.63086 9.02927L6.48633 8.02829ZM1.99805 5.93454C1.86471 6.04645 1.70717 6.12907 1.53418 6.17576V12.3066L4.9043 10.4443V8.09568C4.62202 7.87301 4.44043 7.52885 4.44043 7.14158C4.44043 7.11927 4.44217 7.09718 4.44336 7.07517L1.99805 5.93454ZM6.8418 6.87204C6.86149 6.95886 6.87402 7.04881 6.87402 7.14158C6.87402 7.19153 6.86914 7.24066 6.86328 7.28904L8.97852 8.27536C9.19909 8.05232 9.50516 7.91404 9.84375 7.91404C10.0958 7.91404 10.3302 7.98994 10.5244 8.12107L12.5215 6.96872V3.59665L6.8418 6.87204ZM2.41211 4.78611C2.42495 4.85686 2.43358 4.92943 2.43359 5.00388C2.43359 5.07551 2.42498 5.14561 2.41309 5.21384L4.76855 6.31247C4.99061 6.07499 5.30632 5.92576 5.65723 5.92576C5.84168 5.92581 6.01622 5.96753 6.17285 6.04099L8.09766 4.93161V1.50779L2.41211 4.78611Z" fill="#4285F4" />
</g>
<defs>
<clipPath id="clip0_4005_431">
<rect width="18" height="18" fill="white" />
</clipPath>
</defs>
</svg>