<svg xmlns="http://www.w3.org/2000/svg" width="18.0" height="18.0" viewBox="0.0 0.0 18.0 18.0" fill="none">
<g clip-path="url(#clip0_4005_502)">
<path d="M13.4583 16.7917C13.875 15.8889 14.1458 14.9583 14.2708 14C14.3958 13.0417 14.4167 12.0694 14.3333 11.0833C13.9444 12.1944 13.2569 13.0833 12.2708 13.75C11.2847 14.4028 10.1944 14.7292 9 14.7292C7.83333 14.7292 6.83333 14.4444 6 13.875C5.16667 13.2917 4.47917 12.5486 3.9375 11.6458C3.39583 10.7431 3 9.74305 2.75 8.64583C2.5 7.54861 2.375 6.5 2.375 5.5C2.375 4.76389 2.4375 4.03472 2.5625 3.3125C2.70139 2.59028 2.90278 1.88889 3.16667 1.20833H4.54167C4.13889 2.11111 3.86806 3.04167 3.72917 4C3.59028 4.95833 3.56944 5.93056 3.66667 6.91667C4.05556 5.80555 4.74306 4.92361 5.72917 4.27083C6.71528 3.60417 7.80556 3.27083 9 3.27083C10.1389 3.27083 11.125 3.55555 11.9583 4.125C12.7917 4.68056 13.4792 5.40278 14.0208 6.29167C14.5764 7.18056 14.9792 8.17361 15.2292 9.27083C15.4931 10.3542 15.625 11.4306 15.625 12.5C15.625 13.2361 15.5556 13.9653 15.4167 14.6875C15.2917 15.4097 15.0972 16.1111 14.8333 16.7917H13.4583ZM9 13.5208C10.2639 13.5208 11.3333 13.0833 12.2083 12.2083C13.0833 11.3333 13.5208 10.2639 13.5208 9C13.5208 7.73611 13.0833 6.66667 12.2083 5.79167C11.3333 4.91667 10.2639 4.47917 9 4.47917C7.75 4.47917 6.68056 4.91667 5.79167 5.79167C4.91667 6.66667 4.47917 7.73611 4.47917 9C4.47917 10.25 4.91667 11.3194 5.79167 12.2083C6.68056 13.0833 7.75 13.5208 9 13.5208ZM9 11.7292C9.76389 11.7292 10.4097 11.4653 10.9375 10.9375C11.4653 10.4097 11.7292 9.76389 11.7292 9C11.7292 8.23611 11.4653 7.59028 10.9375 7.0625C10.4097 6.53472 9.76389 6.27083 9 6.27083C8.23611 6.27083 7.59028 6.53472 7.0625 7.0625C6.53472 7.59028 6.27083 8.23611 6.27083 9C6.27083 9.76389 6.53472 10.4097 7.0625 10.9375C7.59028 11.4653 8.23611 11.7292 9 11.7292ZM9 10.5C8.58333 10.5 8.22917 10.3542 7.9375 10.0625C7.64583 9.77083 7.5 9.41667 7.5 9C7.5 8.58333 7.64583 8.22917 7.9375 7.9375C8.22917 7.63194 8.58333 7.47917 9 7.47917C9.41667 7.47917 9.77083 7.63194 10.0625 7.9375C10.3681 8.22917 10.5208 8.58333 10.5208 9C10.5208 9.41667 10.3681 9.77083 10.0625 10.0625C9.77083 10.3542 9.41667 10.5 9 10.5Z" fill="#4285F4" />
</g>
<defs>
<clipPath id="clip0_4005_502">
<rect width="18" height="18" fill="white" />
</clipPath>
</defs>
</svg>