<svg xmlns="http://www.w3.org/2000/svg" width="18.0" height="18.0" viewBox="0.0 0.0 18.0 18.0" fill="none">
<path d="M8.59277 1.7146C8.37191 2.06777 8.19422 2.45087 8.06934 2.85718H4.42871C3.16637 2.85728 2.14281 3.881 2.14258 5.14331V13.1453C2.14282 14.4076 3.16638 15.4303 4.42871 15.4304H12.4307C13.6929 15.4302 14.7156 14.4075 14.7158 13.1453V8.71167C15.1317 8.52323 15.5159 8.27836 15.8594 7.98608V13.1453C15.8591 15.0388 14.3242 16.5737 12.4307 16.574H4.42871C2.53509 16.5739 1.00024 15.0389 1 13.1453V5.14331C1.00023 3.24971 2.53508 1.71471 4.42871 1.7146H8.59277Z" fill="#5F6368" />
<path d="M16.025 4.02325C15.3316 3.72476 14.7249 3.31528 14.2047 2.7953C13.6847 2.27532 13.2752 1.66838 12.9768 0.974991C12.8622 0.709247 12.7701 0.436086 12.6995 0.156019C12.6765 0.0644538 12.5944 0 12.5 0C12.4056 0 12.3235 0.0644538 12.3005 0.156019C12.2299 0.436086 12.1378 0.708992 12.0232 0.974991C11.7248 1.66838 11.3153 2.27532 10.7953 2.7953C10.2753 3.31528 9.66838 3.72476 8.97499 4.02325C8.70925 4.13783 8.43609 4.22991 8.15602 4.3005C8.06445 4.32352 8 4.40562 8 4.5C8 4.59438 8.06445 4.67648 8.15602 4.6995C8.43609 4.77009 8.70899 4.86217 8.97499 4.97675C9.66838 5.27524 10.2751 5.68472 10.7953 6.2047C11.3155 6.72468 11.7248 7.33162 12.0232 8.02501C12.1378 8.29075 12.2299 8.56391 12.3005 8.84398C12.3235 8.93555 12.4056 9 12.5 9C12.5944 9 12.6765 8.93555 12.6995 8.84398C12.7701 8.56391 12.8622 8.29101 12.9768 8.02501C13.2752 7.33162 13.6847 6.72493 14.2047 6.2047C14.7247 5.68472 15.3316 5.27524 16.025 4.97675C16.2908 4.86217 16.5639 4.77009 16.844 4.6995C16.9355 4.67648 17 4.59438 17 4.5C17 4.40562 16.9355 4.32352 16.844 4.3005C16.5639 4.22991 16.291 4.13783 16.025 4.02325Z" fill="#5F6368" />
</svg>