<svg xmlns="http://www.w3.org/2000/svg" width="18.0" height="18.0" viewBox="0.0 0.0 18.0 18.0" fill="none">
<g clip-path="url(#clip0_4005_510)">
<path d="M4.77083 15.6667L4.625 14.3333L6.8125 8.33333C6.96528 8.45833 7.13195 8.56944 7.3125 8.66667C7.50694 8.76389 7.70139 8.84028 7.89583 8.89583L5.79167 14.75L4.77083 15.6667ZM13.2292 15.6667L12.2083 14.7292L10.1042 8.89583C10.2986 8.84028 10.4861 8.76389 10.6667 8.66667C10.8611 8.56944 11.0347 8.45139 11.1875 8.3125L13.375 14.3333L13.2292 15.6667ZM9 7.79167C8.34722 7.79167 7.79167 7.5625 7.33333 7.10417C6.875 6.64583 6.64583 6.08333 6.64583 5.41667C6.64583 4.84722 6.8125 4.36111 7.14583 3.95833C7.49306 3.54167 7.90972 3.27083 8.39583 3.14583V1.89583H9.60417V3.14583C10.0903 3.27083 10.5 3.54167 10.8333 3.95833C11.1806 4.36111 11.3542 4.84722 11.3542 5.41667C11.3542 6.08333 11.125 6.64583 10.6667 7.10417C10.2083 7.5625 9.65278 7.79167 9 7.79167ZM9 6.58333C9.31945 6.58333 9.59028 6.47222 9.8125 6.25C10.0347 6.01389 10.1458 5.73611 10.1458 5.41667C10.1458 5.11111 10.0347 4.84722 9.8125 4.625C9.59028 4.38889 9.31945 4.27083 9 4.27083C8.68056 4.27083 8.40972 4.38889 8.1875 4.625C7.96528 4.84722 7.85417 5.11111 7.85417 5.41667C7.85417 5.73611 7.96528 6.01389 8.1875 6.25C8.40972 6.47222 8.68056 6.58333 9 6.58333Z" fill="#4285F4" />
</g>
<defs>
<clipPath id="clip0_4005_510">
<rect width="18" height="18" fill="white" />
</clipPath>
</defs>
</svg>