<svg xmlns="http://www.w3.org/2000/svg" width="18.0" height="18.0" viewBox="0.0 0.0 18.0 18.0" fill="none">
<g clip-path="url(#clip0_4005_512)">
<path d="M3.125 15.75C2.88889 15.6667 2.70139 15.5625 2.5625 15.4375C2.4375 15.2986 2.33333 15.1111 2.25 14.875L14.875 2.25C15.0694 2.33333 15.2431 2.45139 15.3958 2.60417C15.5486 2.74305 15.6597 2.91667 15.7292 3.125L3.125 15.75ZM2.25 10.7708V9.02083L9.02083 2.25H10.7708L2.25 10.7708ZM2.25 4.6875V3.72917C2.25 3.3125 2.38889 2.96528 2.66667 2.6875C2.95833 2.39583 3.3125 2.25 3.72917 2.25H4.6875L2.25 4.6875ZM13.1042 15.75L15.75 13.1042V14.2708C15.75 14.6875 15.6042 15.0417 15.3125 15.3333C15.0347 15.6111 14.6875 15.75 14.2708 15.75H13.1042ZM7.22917 15.75L15.75 7.22917V8.97917L8.97917 15.75H7.22917Z" fill="#4285F4" />
</g>
<defs>
<clipPath id="clip0_4005_512">
<rect width="18" height="18" fill="white" />
</clipPath>
</defs>
</svg>