<svg xmlns="http://www.w3.org/2000/svg" width="18.0" height="18.0" viewBox="0.0 0.0 18.0 18.0" fill="none">
<g clip-path="url(#clip0_4005_388)">
<path d="M9 17.9833C6.90694 17.4639 5.17292 16.2722 3.79792 14.4083C2.43819 12.5444 1.75833 10.4667 1.75833 8.175V2.76667L9 0.0166661L16.2417 2.76667V8.175C16.2417 10.4667 15.5542 12.5444 14.1792 14.4083C12.8194 16.2722 11.0931 17.4639 9 17.9833ZM9 16.15C10.5889 15.6611 11.9028 14.6681 12.9417 13.1708C13.9806 11.6736 14.5 10.0083 14.5 8.175V3.95833L9 1.87292L3.5 3.95833V8.175C3.5 10.0083 4.01944 11.6736 5.05833 13.1708C6.09722 14.6681 7.41111 15.6611 9 16.15Z" fill="#4285F4" />
</g>
<defs>
<clipPath id="clip0_4005_388">
<rect width="18" height="18" fill="white" />
</clipPath>
</defs>
</svg>