<svg xmlns="http://www.w3.org/2000/svg" width="18.0" height="18.0" viewBox="0.0 0.0 18.0 18.0" fill="none">
<g clip-path="url(#clip0_4005_411)">
<path d="M14.6533 9.99609L1 17.6758V2.29492L14.6533 9.99609ZM2.28027 15.4785L12.0508 9.99609L2.28027 4.49219V15.4785ZM13.3428 0C13.4195 0 13.4862 0.0525381 13.5049 0.126953C13.5622 0.354426 13.6374 0.576145 13.7305 0.791992C13.973 1.35551 14.3059 1.8489 14.7285 2.27148C15.1513 2.69406 15.6445 3.02696 16.208 3.26953C16.4241 3.36258 16.6456 3.43778 16.873 3.49512C16.9475 3.51382 17 3.58053 17 3.65723C17 3.73388 16.9474 3.80064 16.873 3.81934C16.6456 3.87668 16.4239 3.95186 16.208 4.04492C15.6445 4.2875 15.1511 4.62038 14.7285 5.04297C14.3061 5.46564 13.973 5.95818 13.7305 6.52148C13.6373 6.73766 13.5623 6.95989 13.5049 7.1875C13.4862 7.26188 13.4195 7.31445 13.3428 7.31445C13.2661 7.31441 13.1994 7.26188 13.1807 7.1875C13.1233 6.95989 13.0482 6.73745 12.9551 6.52148C12.7125 5.95816 12.3797 5.46544 11.957 5.04297C11.5344 4.6205 11.0418 4.28748 10.4785 4.04492C10.2623 3.9518 10.0401 3.87671 9.8125 3.81934C9.73812 3.80064 9.6856 3.73388 9.68555 3.65723C9.68555 3.58054 9.73811 3.51384 9.8125 3.49512C10.0401 3.43775 10.2625 3.36265 10.4785 3.26953C11.0418 3.02699 11.5346 2.69392 11.957 2.27148C12.3796 1.8489 12.7125 1.35551 12.9551 0.791992C13.0481 0.575931 13.1233 0.354434 13.1807 0.126953C13.1994 0.0525653 13.2661 3.82346e-05 13.3428 0Z" fill="#4285F4" />
</g>
<defs>
<clipPath id="clip0_4005_411">
<rect width="18" height="18" fill="white" />
</clipPath>
</defs>
</svg>